<svg xmlns="http://www.w3.org/2000/svg" width="1200" height="630" viewBox="0 0 1200 630">
  <defs>
    <radialGradient id="violet" cx="50%" cy="50%">
      <stop offset="0%" stop-color="#7b3fd4" stop-opacity=".40"/>
      <stop offset="60%" stop-color="#4a2278" stop-opacity=".20"/>
      <stop offset="100%" stop-color="#4a2278" stop-opacity="0"/>
    </radialGradient>
    <radialGradient id="teal" cx="50%" cy="50%">
      <stop offset="0%" stop-color="#4fd8f5" stop-opacity=".62"/>
      <stop offset="45%" stop-color="#1580ad" stop-opacity=".38"/>
      <stop offset="100%" stop-color="#0b3352" stop-opacity="0"/>
    </radialGradient>
    <radialGradient id="ember" cx="50%" cy="50%">
      <stop offset="0%" stop-color="#ffcf9e" stop-opacity=".85"/>
      <stop offset="38%" stop-color="#ff7838" stop-opacity=".55"/>
      <stop offset="100%" stop-color="#8f2f14" stop-opacity="0"/>
    </radialGradient>
    <radialGradient id="core" cx="50%" cy="50%">
      <stop offset="0%" stop-color="#fff4e2" stop-opacity=".95"/>
      <stop offset="40%" stop-color="#ffb877" stop-opacity=".35"/>
      <stop offset="100%" stop-color="#ffb877" stop-opacity="0"/>
    </radialGradient>
    <radialGradient id="dust" cx="20%" cy="85%">
      <stop offset="0%" stop-color="#3a5a8c" stop-opacity=".22"/>
      <stop offset="100%" stop-color="#3a5a8c" stop-opacity="0"/>
    </radialGradient>
    <linearGradient id="fade" x1="0" y1="0" x2="1" y2="0">
      <stop offset="0%" stop-color="#05060a" stop-opacity=".97"/>
      <stop offset="58%" stop-color="#05060a" stop-opacity=".62"/>
      <stop offset="100%" stop-color="#05060a" stop-opacity="0"/>
    </linearGradient>
  </defs>

  <rect width="1200" height="630" fill="#05060a"/>
  <rect width="1200" height="630" fill="url(#dust)"/>
  <g><circle cx="78.4" cy="550.0" r="1.31" fill="#fff" opacity="0.40"/><circle cx="802.9" cy="225.8" r="1.52" fill="#fff" opacity="0.20"/><circle cx="220.5" cy="296.7" r="1.71" fill="#fff" opacity="0.33"/><circle cx="150.9" cy="435.0" r="1.22" fill="#fff" opacity="0.59"/><circle cx="298.0" cy="438.1" r="0.92" fill="#fff" opacity="0.36"/><circle cx="1111.0" cy="366.1" r="1.49" fill="#fff" opacity="0.64"/><circle cx="708.0" cy="158.4" r="1.43" fill="#fff" opacity="0.30"/><circle cx="505.7" cy="392.4" r="1.55" fill="#fff" opacity="0.69"/><circle cx="898.4" cy="336.2" r="1.30" fill="#fff" opacity="0.49"/><circle cx="1030.4" cy="313.2" r="0.92" fill="#fff" opacity="0.23"/><circle cx="205.3" cy="435.1" r="1.67" fill="#fff" opacity="0.65"/><circle cx="1176.9" cy="516.7" r="0.76" fill="#fff" opacity="0.60"/><circle cx="264.0" cy="473.8" r="1.17" fill="#fff" opacity="0.65"/><circle cx="1133.6" cy="32.2" r="1.01" fill="#fff" opacity="0.35"/><circle cx="596.5" cy="515.1" r="1.66" fill="#fff" opacity="0.57"/><circle cx="658.7" cy="291.3" r="1.13" fill="#fff" opacity="0.72"/><circle cx="572.5" cy="195.2" r="0.84" fill="#fff" opacity="0.41"/><circle cx="930.3" cy="109.1" r="0.77" fill="#fff" opacity="0.50"/><circle cx="546.6" cy="181.2" r="1.44" fill="#fff" opacity="0.22"/><circle cx="770.0" cy="154.7" r="1.28" fill="#fff" opacity="0.51"/><circle cx="969.9" cy="518.9" r="0.69" fill="#fff" opacity="0.47"/><circle cx="442.3" cy="530.2" r="0.68" fill="#fff" opacity="0.20"/><circle cx="676.6" cy="279.7" r="1.65" fill="#fff" opacity="0.53"/><circle cx="1029.1" cy="280.5" r="1.19" fill="#fff" opacity="0.48"/><circle cx="345.8" cy="396.6" r="0.90" fill="#fff" opacity="0.25"/><circle cx="578.5" cy="91.1" r="1.12" fill="#fff" opacity="0.44"/><circle cx="338.2" cy="240.1" r="0.67" fill="#fff" opacity="0.71"/><circle cx="229.2" cy="616.4" r="0.62" fill="#fff" opacity="0.26"/><circle cx="107.8" cy="533.0" r="1.24" fill="#fff" opacity="0.37"/><circle cx="1109.8" cy="216.4" r="0.86" fill="#fff" opacity="0.69"/><circle cx="388.9" cy="4.6" r="0.88" fill="#fff" opacity="0.25"/><circle cx="412.9" cy="293.7" r="1.49" fill="#fff" opacity="0.58"/><circle cx="957.3" cy="274.8" r="0.77" fill="#fff" opacity="0.20"/><circle cx="1044.3" cy="589.0" r="0.67" fill="#fff" opacity="0.26"/><circle cx="1167.4" cy="66.9" r="0.59" fill="#fff" opacity="0.29"/><circle cx="47.5" cy="186.7" r="1.12" fill="#fff" opacity="0.26"/><circle cx="863.7" cy="170.4" r="1.58" fill="#fff" opacity="0.41"/><circle cx="202.3" cy="449.3" r="0.53" fill="#fff" opacity="0.33"/><circle cx="467.8" cy="252.3" r="1.66" fill="#fff" opacity="0.68"/><circle cx="399.8" cy="431.9" r="1.09" fill="#fff" opacity="0.43"/><circle cx="239.9" cy="119.0" r="0.66" fill="#fff" opacity="0.51"/><circle cx="791.1" cy="524.9" r="0.64" fill="#fff" opacity="0.36"/><circle cx="1115.4" cy="386.4" r="1.40" fill="#fff" opacity="0.23"/><circle cx="1111.5" cy="467.6" r="1.79" fill="#fff" opacity="0.34"/><circle cx="1117.1" cy="40.2" r="1.41" fill="#fff" opacity="0.22"/><circle cx="580.1" cy="549.8" r="1.22" fill="#fff" opacity="0.62"/><circle cx="541.3" cy="335.0" r="1.41" fill="#fff" opacity="0.37"/><circle cx="573.6" cy="333.3" r="0.91" fill="#fff" opacity="0.50"/><circle cx="320.0" cy="543.3" r="1.68" fill="#fff" opacity="0.40"/><circle cx="475.8" cy="563.5" r="0.91" fill="#fff" opacity="0.28"/><circle cx="757.3" cy="43.2" r="0.93" fill="#fff" opacity="0.50"/><circle cx="1101.8" cy="78.8" r="0.95" fill="#fff" opacity="0.23"/><circle cx="641.5" cy="446.5" r="1.33" fill="#fff" opacity="0.57"/><circle cx="96.9" cy="320.9" r="1.79" fill="#fff" opacity="0.49"/><circle cx="331.3" cy="204.9" r="1.68" fill="#fff" opacity="0.45"/><circle cx="911.4" cy="433.7" r="1.20" fill="#fff" opacity="0.67"/><circle cx="417.9" cy="596.6" r="0.66" fill="#fff" opacity="0.31"/><circle cx="549.1" cy="591.5" r="1.29" fill="#fff" opacity="0.29"/><circle cx="761.7" cy="411.9" r="1.20" fill="#fff" opacity="0.32"/><circle cx="492.3" cy="327.0" r="1.39" fill="#fff" opacity="0.18"/><circle cx="1103.9" cy="128.1" r="1.54" fill="#fff" opacity="0.68"/><circle cx="0.4" cy="48.4" r="1.05" fill="#fff" opacity="0.21"/><circle cx="853.2" cy="453.7" r="1.68" fill="#fff" opacity="0.73"/><circle cx="584.2" cy="76.1" r="1.47" fill="#fff" opacity="0.71"/><circle cx="447.6" cy="282.7" r="0.55" fill="#fff" opacity="0.70"/><circle cx="55.6" cy="348.2" r="1.52" fill="#fff" opacity="0.36"/><circle cx="691.1" cy="356.7" r="0.60" fill="#fff" opacity="0.38"/><circle cx="151.2" cy="166.4" r="1.32" fill="#fff" opacity="0.38"/><circle cx="65.4" cy="38.6" r="0.57" fill="#fff" opacity="0.38"/><circle cx="131.9" cy="500.1" r="1.65" fill="#fff" opacity="0.25"/><circle cx="816.6" cy="423.4" r="0.91" fill="#fff" opacity="0.27"/><circle cx="357.0" cy="30.7" r="0.53" fill="#fff" opacity="0.38"/><circle cx="1016.9" cy="560.1" r="1.31" fill="#fff" opacity="0.49"/><circle cx="233.5" cy="55.2" r="1.29" fill="#fff" opacity="0.66"/><circle cx="201.7" cy="12.0" r="1.67" fill="#fff" opacity="0.62"/><circle cx="140.0" cy="608.5" r="0.79" fill="#fff" opacity="0.38"/><circle cx="580.4" cy="196.7" r="1.76" fill="#fff" opacity="0.69"/><circle cx="126.6" cy="406.1" r="0.95" fill="#fff" opacity="0.19"/><circle cx="224.3" cy="95.6" r="1.72" fill="#fff" opacity="0.69"/><circle cx="188.2" cy="605.3" r="1.69" fill="#fff" opacity="0.45"/><circle cx="1027.4" cy="192.4" r="1.20" fill="#fff" opacity="0.33"/><circle cx="914.6" cy="416.3" r="1.53" fill="#fff" opacity="0.47"/><circle cx="243.3" cy="151.7" r="0.72" fill="#fff" opacity="0.20"/><circle cx="914.2" cy="312.2" r="1.79" fill="#fff" opacity="0.27"/><circle cx="397.5" cy="315.6" r="1.57" fill="#fff" opacity="0.50"/><circle cx="613.2" cy="239.2" r="1.49" fill="#fff" opacity="0.41"/><circle cx="373.3" cy="91.6" r="1.52" fill="#fff" opacity="0.67"/><circle cx="430.2" cy="385.0" r="1.02" fill="#fff" opacity="0.54"/><circle cx="74.1" cy="157.9" r="0.72" fill="#fff" opacity="0.39"/><circle cx="524.9" cy="97.8" r="1.80" fill="#fff" opacity="0.39"/><circle cx="659.8" cy="299.7" r="0.81" fill="#fff" opacity="0.31"/><circle cx="922.9" cy="623.8" r="1.67" fill="#fff" opacity="0.57"/><circle cx="358.7" cy="433.7" r="1.27" fill="#fff" opacity="0.43"/><circle cx="814.5" cy="324.2" r="0.51" fill="#fff" opacity="0.36"/><circle cx="254.2" cy="412.8" r="0.59" fill="#fff" opacity="0.33"/><circle cx="628.9" cy="12.1" r="1.70" fill="#fff" opacity="0.21"/><circle cx="846.3" cy="499.7" r="1.26" fill="#fff" opacity="0.36"/><circle cx="883.7" cy="138.4" r="1.61" fill="#fff" opacity="0.69"/><circle cx="188.6" cy="619.8" r="1.39" fill="#fff" opacity="0.30"/><circle cx="209.1" cy="536.6" r="0.97" fill="#fff" opacity="0.69"/><circle cx="800.0" cy="284.0" r="1.73" fill="#fff" opacity="0.63"/><circle cx="946.7" cy="208.3" r="1.73" fill="#fff" opacity="0.28"/><circle cx="151.2" cy="440.5" r="0.77" fill="#fff" opacity="0.70"/><circle cx="724.2" cy="296.3" r="1.00" fill="#fff" opacity="0.60"/><circle cx="726.5" cy="325.7" r="1.25" fill="#fff" opacity="0.56"/><circle cx="4.3" cy="168.8" r="1.69" fill="#fff" opacity="0.19"/><circle cx="60.8" cy="25.5" r="0.85" fill="#fff" opacity="0.41"/><circle cx="409.4" cy="471.8" r="0.83" fill="#fff" opacity="0.51"/><circle cx="350.9" cy="554.3" r="0.87" fill="#fff" opacity="0.23"/><circle cx="1019.9" cy="551.2" r="0.98" fill="#fff" opacity="0.63"/><circle cx="442.4" cy="195.4" r="1.57" fill="#fff" opacity="0.40"/><circle cx="1049.5" cy="324.7" r="0.67" fill="#fff" opacity="0.60"/><circle cx="191.5" cy="328.9" r="1.30" fill="#fff" opacity="0.30"/><circle cx="493.7" cy="302.5" r="1.44" fill="#fff" opacity="0.70"/><circle cx="401.5" cy="590.2" r="1.76" fill="#fff" opacity="0.67"/><circle cx="1154.2" cy="387.4" r="1.67" fill="#fff" opacity="0.39"/><circle cx="734.9" cy="367.5" r="1.38" fill="#fff" opacity="0.63"/><circle cx="838.1" cy="604.9" r="0.54" fill="#fff" opacity="0.40"/><circle cx="399.7" cy="338.6" r="1.47" fill="#fff" opacity="0.61"/><circle cx="1132.4" cy="611.8" r="1.76" fill="#fff" opacity="0.69"/><circle cx="411.3" cy="266.8" r="1.68" fill="#fff" opacity="0.61"/><circle cx="1152.6" cy="505.0" r="1.48" fill="#fff" opacity="0.36"/><circle cx="229.3" cy="617.3" r="1.74" fill="#fff" opacity="0.38"/><circle cx="67.7" cy="409.1" r="0.61" fill="#fff" opacity="0.65"/><circle cx="769.1" cy="431.2" r="1.70" fill="#fff" opacity="0.56"/><circle cx="1198.8" cy="103.6" r="1.31" fill="#fff" opacity="0.50"/><circle cx="588.6" cy="280.6" r="1.79" fill="#fff" opacity="0.68"/><circle cx="893.6" cy="579.2" r="0.69" fill="#fff" opacity="0.20"/><circle cx="850.0" cy="222.1" r="0.92" fill="#fff" opacity="0.39"/><circle cx="575.5" cy="594.4" r="1.06" fill="#fff" opacity="0.31"/><circle cx="1056.7" cy="309.7" r="1.30" fill="#fff" opacity="0.29"/><circle cx="1167.9" cy="199.8" r="0.54" fill="#fff" opacity="0.43"/><circle cx="1164.4" cy="517.7" r="1.15" fill="#fff" opacity="0.46"/><circle cx="293.4" cy="523.9" r="1.57" fill="#fff" opacity="0.35"/><circle cx="468.5" cy="72.0" r="1.53" fill="#fff" opacity="0.28"/><circle cx="648.1" cy="446.1" r="0.99" fill="#fff" opacity="0.56"/><circle cx="465.5" cy="602.0" r="1.10" fill="#fff" opacity="0.27"/><circle cx="750.6" cy="240.8" r="0.68" fill="#fff" opacity="0.24"/><circle cx="889.8" cy="510.5" r="1.17" fill="#fff" opacity="0.40"/><circle cx="466.4" cy="219.9" r="1.06" fill="#fff" opacity="0.47"/><circle cx="925.4" cy="94.4" r="1.31" fill="#fff" opacity="0.34"/><circle cx="907.0" cy="44.9" r="0.80" fill="#fff" opacity="0.71"/><circle cx="792.4" cy="403.3" r="1.27" fill="#fff" opacity="0.55"/><circle cx="1104.4" cy="598.9" r="1.57" fill="#fff" opacity="0.44"/><circle cx="109.2" cy="248.8" r="1.32" fill="#fff" opacity="0.42"/><circle cx="1059.9" cy="227.0" r="0.79" fill="#fff" opacity="0.59"/><circle cx="228.7" cy="182.5" r="1.09" fill="#fff" opacity="0.51"/><circle cx="368.6" cy="466.8" r="1.04" fill="#fff" opacity="0.36"/><circle cx="950.5" cy="213.3" r="0.73" fill="#fff" opacity="0.25"/><circle cx="818.5" cy="477.9" r="1.03" fill="#fff" opacity="0.37"/></g>

  <g transform="translate(905 300)">
    <ellipse rx="340" ry="300" fill="url(#violet)"/>
    <ellipse cx="-40" cy="-30" rx="250" ry="210" fill="url(#teal)"/>
    <ellipse cx="70" cy="60" rx="190" ry="160" fill="url(#ember)"/>
    <ellipse cx="-110" cy="90" rx="120" ry="95" fill="url(#ember)" opacity=".55"/>
    <ellipse cx="120" cy="-110" rx="130" ry="105" fill="url(#teal)" opacity=".6"/>
    <circle cx="-20" cy="-10" r="90" fill="url(#core)"/>
  </g>

  <g><circle cx="98.7" cy="282.1" r="1.04" fill="#fff" opacity="0.50"/><circle cx="718.5" cy="480.4" r="1.14" fill="#fff" opacity="0.41"/><circle cx="812.4" cy="99.6" r="0.57" fill="#fff" opacity="0.48"/><circle cx="1006.2" cy="193.6" r="0.86" fill="#fff" opacity="0.49"/><circle cx="411.2" cy="33.3" r="0.58" fill="#fff" opacity="0.58"/><circle cx="718.1" cy="142.1" r="1.44" fill="#fff" opacity="0.37"/><circle cx="743.2" cy="335.9" r="0.68" fill="#fff" opacity="0.48"/><circle cx="721.8" cy="337.4" r="1.23" fill="#fff" opacity="0.50"/><circle cx="1141.1" cy="613.1" r="1.08" fill="#fff" opacity="0.54"/><circle cx="407.4" cy="606.7" r="0.62" fill="#fff" opacity="0.54"/><circle cx="740.8" cy="522.7" r="0.59" fill="#fff" opacity="0.61"/><circle cx="792.2" cy="367.9" r="1.15" fill="#fff" opacity="0.22"/><circle cx="574.1" cy="200.2" r="1.55" fill="#fff" opacity="0.48"/><circle cx="201.8" cy="18.6" r="1.19" fill="#fff" opacity="0.23"/><circle cx="636.4" cy="406.7" r="0.76" fill="#fff" opacity="0.45"/><circle cx="524.9" cy="159.8" r="1.11" fill="#fff" opacity="0.42"/><circle cx="330.0" cy="512.8" r="1.73" fill="#fff" opacity="0.19"/><circle cx="44.4" cy="543.9" r="1.07" fill="#fff" opacity="0.28"/><circle cx="1082.2" cy="616.0" r="1.25" fill="#fff" opacity="0.43"/><circle cx="442.4" cy="6.8" r="1.79" fill="#fff" opacity="0.43"/><circle cx="337.7" cy="232.8" r="1.15" fill="#fff" opacity="0.31"/><circle cx="381.1" cy="534.9" r="0.54" fill="#fff" opacity="0.43"/><circle cx="927.1" cy="495.0" r="0.84" fill="#fff" opacity="0.73"/><circle cx="857.7" cy="346.0" r="0.56" fill="#fff" opacity="0.37"/><circle cx="1009.7" cy="400.4" r="0.84" fill="#fff" opacity="0.69"/><circle cx="735.4" cy="554.6" r="1.33" fill="#fff" opacity="0.38"/><circle cx="591.4" cy="348.2" r="1.31" fill="#fff" opacity="0.21"/><circle cx="448.7" cy="222.1" r="1.00" fill="#fff" opacity="0.65"/><circle cx="617.8" cy="358.3" r="1.15" fill="#fff" opacity="0.48"/><circle cx="683.7" cy="580.6" r="0.50" fill="#fff" opacity="0.42"/><circle cx="642.1" cy="535.1" r="1.35" fill="#fff" opacity="0.33"/><circle cx="833.8" cy="162.0" r="1.58" fill="#fff" opacity="0.34"/><circle cx="1067.9" cy="626.1" r="0.88" fill="#fff" opacity="0.29"/><circle cx="829.9" cy="360.2" r="1.31" fill="#fff" opacity="0.35"/><circle cx="367.4" cy="564.1" r="0.90" fill="#fff" opacity="0.20"/><circle cx="346.4" cy="9.1" r="1.32" fill="#fff" opacity="0.52"/><circle cx="474.4" cy="104.7" r="1.52" fill="#fff" opacity="0.63"/><circle cx="181.0" cy="393.9" r="0.55" fill="#fff" opacity="0.63"/><circle cx="1152.1" cy="77.3" r="1.52" fill="#fff" opacity="0.50"/><circle cx="1010.5" cy="537.6" r="1.41" fill="#fff" opacity="0.47"/><circle cx="136.2" cy="210.9" r="1.20" fill="#fff" opacity="0.26"/><circle cx="721.3" cy="400.7" r="0.71" fill="#fff" opacity="0.71"/><circle cx="252.6" cy="464.6" r="1.60" fill="#fff" opacity="0.71"/><circle cx="1114.9" cy="26.9" r="0.52" fill="#fff" opacity="0.42"/><circle cx="710.8" cy="191.4" r="1.62" fill="#fff" opacity="0.66"/><circle cx="1188.2" cy="301.6" r="1.25" fill="#fff" opacity="0.23"/><circle cx="171.6" cy="178.1" r="0.69" fill="#fff" opacity="0.28"/><circle cx="989.0" cy="286.0" r="1.61" fill="#fff" opacity="0.52"/><circle cx="789.9" cy="627.4" r="0.59" fill="#fff" opacity="0.52"/><circle cx="446.6" cy="574.6" r="1.61" fill="#fff" opacity="0.70"/><circle cx="33.3" cy="126.6" r="1.16" fill="#fff" opacity="0.35"/><circle cx="377.2" cy="78.0" r="0.71" fill="#fff" opacity="0.30"/><circle cx="274.2" cy="8.8" r="1.60" fill="#fff" opacity="0.20"/><circle cx="864.3" cy="88.9" r="1.63" fill="#fff" opacity="0.51"/><circle cx="158.6" cy="249.9" r="0.88" fill="#fff" opacity="0.39"/><circle cx="614.2" cy="514.2" r="1.56" fill="#fff" opacity="0.37"/><circle cx="148.3" cy="128.9" r="1.19" fill="#fff" opacity="0.69"/><circle cx="886.6" cy="239.2" r="0.65" fill="#fff" opacity="0.57"/><circle cx="639.6" cy="503.2" r="1.34" fill="#fff" opacity="0.53"/><circle cx="799.9" cy="368.6" r="0.50" fill="#fff" opacity="0.25"/></g>
  <rect width="820" height="630" fill="url(#fade)"/>

  <g transform="translate(84 172)">
    <text font-family="'Consolas', 'Courier New', monospace" font-size="20" letter-spacing="6" fill="#8b93a6">MANN5700</text>
    <text y="104" font-family="'Segoe UI', 'Helvetica Neue', Arial, sans-serif" font-size="96" font-weight="300" letter-spacing="-3" fill="#ffffff">Mann Patel</text>
    <text y="160" font-family="'Consolas', 'Courier New', monospace" font-size="22" letter-spacing="5" fill="#ff9d5c">SOFTWARE ENGINEER</text>
    <text y="232" font-family="'Segoe UI', 'Helvetica Neue', Arial, sans-serif" font-size="29" font-weight="300" fill="#9aa3b8">I build AI-augmented tooling and automation that</text>
    <text y="272" font-family="'Segoe UI', 'Helvetica Neue', Arial, sans-serif" font-size="29" font-weight="300" fill="#9aa3b8">gives engineering teams their hours back.</text>
    <line x1="0" y1="332" x2="120" y2="332" stroke="#ff9d5c" stroke-width="2"/>
  </g>
</svg>